<svg xmlns="http://www.w3.org/2000/svg" width="24" height="24" viewBox="0 0 24 24" aria-hidden="true">
  <defs>
    <linearGradient id="g" x1="0" x2="1" y1="0" y2="1">
      <stop offset="0" stop-color="#25D366"/>
      <stop offset="1" stop-color="#0BBE5B"/>
    </linearGradient>
  </defs>
  <rect width="24" height="24" rx="12" fill="url(#g)"/>
  <path fill="#fff" d="M17.472 14.382c-.297-.149-1.758-.867-2.03-.967-.273-.099-.473-.149-.673.15-.199.297-.768.967-.942 1.166-.173.199-.347.224-.644.075-.297-.149-1.255-.463-2.39-1.475-.885-.788-1.48-1.761-1.653-2.059-.173-.297-.018-.458.13-.606.134-.133.297-.347.446-.52.149-.173.199-.298.298-.497.099-.199.05-.373-.025-.522-.075-.149-.673-1.625-.923-2.224-.243-.583-.487-.5-.673-.51l-.575-.01c-.198 0-.52.074-.793.373-.273.298-1.04 1.016-1.04 2.479 0 1.462 1.065 2.875 1.213 3.074.149.198 2.095 3.2 5.077 4.487 0 0 .0.004.006.002. ... (truncated for brevity)"/>
</svg>